{"title":"Kick Ass 2 720p.WEB-DL (Original Source) x264.AC3.SmY","uid":8864758,"size":1340335204,"categoryP":"video","categoryS":"hd___movies","magnet":"?xt=urn:btih:4f3c0a6b8358cc8123be60555ba8581ff2150ad1&amp;dn=Kick+Ass+2+720p.WEB-DL+%28Original+Source%29+x264.AC3.SmY&amp;tr=udp%3A%2F%2Ftracker.openbittorrent.com%3A80&amp;tr=udp%3A%2F%2Fopen.demonii.com%3A1337&amp;tr=udp%3A%2F%2Ftracker.coppersurfer.tk%3A6969&amp;tr=udp%3A%2F%2Fexodus.desync.com%3A6969","seeders":2,"leechers":0,"uploader":"tarkovski","files":1,"time":1377877787,"description":"Kick-Ass 2ï¼šBalls.to.the.Wall.2013.720p.WEB-DL.x264.AC3-SmY.mkv\n\nFormat                                   : Matroska\nFormat version                           : Version 4 / Version 2\nFile size                                : 1.25 GiB\nDuration                                 : 1h 38mn\nOverall bit rate                         : 1 810 Kbps\nEncoded date                             : UTC 2010-02-22 21:41:31\nWriting application                      : mkvmerge v5.9.0 ('On The Loose') built on Dec  9 2012 15:37:01\nWriting library                          : libebml v1.3.0 + libmatroska v1.4.0\n\nVideo\nID                                       : 1\nFormat                                   : AVC\nFormat/Info                              : Advanced Video Codec\nFormat profile                           : &lt;a class=&quot;__cf_email__&quot; href=&quot;/cdn-cgi/l/email-protection&quot; data-cfemail=&quot;3078595758707c031e01&quot;&gt;[email&amp;#160;protected]&lt;/a&gt;&lt;script cf-hash='f9e31' type=&quot;text/javascript&quot;&gt;\n/* &lt;![CDATA[ */!function(){try{var t=&quot;currentScript&quot;in document?document.currentScript:function(){for(var t=document.getElementsByTagName(&quot;script&quot;),e=t.length;e--;)if(t[e].getAttribute(&quot;cf-hash&quot;))return t[e]}();if(t&amp;&amp;t.previousSibling){var e,r,n,i,c=t.previousSibling,a=c.getAttribute(&quot;data-cfemail&quot;);if(a){for(e=&quot;&quot;,r=parseInt(a.substr(0,2),16),n=2;a.length-n;n+=2)i=parseInt(a.substr(n,2),16)^r,e+=String.fromCharCode(i);e=document.createTextNode(e),c.parentNode.replaceChild(e,c)}}}catch(u){}}();/* ]]&gt; */&lt;/script&gt;\nFormat settings, CABAC                   : Yes\nFormat settings, ReFrames                : 4 frames\nMuxing mode                              : Header stripping\nCodec ID                                 : V_MPEG4/ISO/AVC\nDuration                                 : 1h 38mn\nBit rate                                 : 1 500 Kbps\nWidth                                    : 1 280 pixels\nHeight                                   : 720 pixels\nDisplay aspect ratio                     : 16:9\nFrame rate mode                          : Constant\nFrame rate                               : 25.000 fps\nColor space                              : YUV\nChroma subsampling                       : 4:2:0\nBit depth                                : 8 bits\nScan type                                : Progressive\nBits/(Pixel*Frame)                       : 0.065\nStream size                              : 1.00 GiB (80%)\nWriting library                          : x264 core 116 r2074 2641b9e\n\nLanguage                                 : English\nDefault                                  : Yes\nForced                                   : No\n\nAudio\nID                                       : 2\nFormat                                   : AC-3\nFormat/Info                              : Audio Coding 3\nMode extension                           : CM (complete main)\nFormat settings, Endianness              : Big\nMuxing mode                              : Header stripping\nCodec ID                                 : A_AC3\nDuration                                 : 1h 38mn\nBit rate mode                            : Constant\nBit rate                                 : 320 Kbps\nChannel(s)                               : 2 channels\nChannel positions                        : Front: L R\nSampling rate                            : 44.1 KHz\nBit depth                                : 16 bits\nCompression mode                         : Lossy\nStream size                              : 226 MiB (18%)\nDefault                                  : Yes\nForced                                   : No\n\n\n &lt;a href=&quot;\nhttp://bayimg.com/BaPaDAaEe&quot; rel=&quot;nofollow&quot; target=&quot;_NEW&quot;&gt;\nhttp://bayimg.com/BaPaDAaEe&lt;/a&gt; &lt;a href=&quot;\nhttp://bayimg.com/FAppoaAED&quot; rel=&quot;nofollow&quot; target=&quot;_NEW&quot;&gt;\nhttp://bayimg.com/FAppoaAED&lt;/a&gt; &lt;a href=&quot;\nhttp://bayimg.com/kappCAAED&quot; rel=&quot;nofollow&quot; target=&quot;_NEW&quot;&gt;\nhttp://bayimg.com/kappCAAED&lt;/a&gt; &lt;a href=&quot;\nhttp://bayimg.com/AapaiaAeE&quot; rel=&quot;nofollow&quot; target=&quot;_NEW&quot;&gt;\nhttp://bayimg.com/AapaiaAeE&lt;/a&gt; &lt;a href=&quot;\nhttp://bayimg.com/AaPAKaaee&quot; rel=&quot;nofollow&quot; target=&quot;_NEW&quot;&gt;\nhttp://bayimg.com/AaPAKaaee&lt;/a&gt; &lt;a href=&quot;\nhttp://bayimg.com/baPAcAAEE&quot; rel=&quot;nofollow&quot; target=&quot;_NEW&quot;&gt;\nhttp://bayimg.com/baPAcAAEE&lt;/a&gt;\n","torrent":{"xt":"urn:btih:4f3c0a6b8358cc8123be60555ba8581ff2150ad1","amp;dn":"Kick+Ass+2+720p.WEB-DL+%28Original+Source%29+x264.AC3.SmY","amp;tr":["udp%3A%2F%2Ftracker.openbittorrent.com%3A80","udp%3A%2F%2Fopen.demonii.com%3A1337","udp%3A%2F%2Ftracker.coppersurfer.tk%3A6969","udp%3A%2F%2Fexodus.desync.com%3A6969"],"infoHash":"4f3c0a6b8358cc8123be60555ba8581ff2150ad1","infoHashBuffer":{"type":"Buffer","data":[79,60,10,107,131,88,204,129,35,190,96,85,91,168,88,31,242,21,10,209]},"announce":[],"urlList":[]}}